<svg width="1280" height="832" viewBox="0 0 1280 832" fill="none" xmlns="http://www.w3.org/2000/svg">
<rect width="1280" height="832" fill="#373839"/>
<path d="M696.035 363.972C695.948 363.972 695.86 363.972 695.86 363.972C697.172 360.823 697.959 357.412 697.959 353.825C697.959 339.654 686.503 328.195 672.337 328.195C667.352 328.195 662.63 329.682 658.695 332.131C653.36 319.097 640.593 310 625.639 310C605.876 310 589.961 326.008 589.961 345.69C589.961 347.177 590.048 348.664 590.223 350.064C590.136 350.064 590.048 350.064 589.961 350.064C576.756 350.064 566 360.823 566 374.032C566 387.241 576.756 398 589.961 398H696.035C705.392 398 713 390.39 713 381.03C713 371.583 705.392 363.972 696.035 363.972Z" fill="white"/>
<rect x="456" y="474.624" width="368" height="24.7534" rx="12.3767" fill="white"/>
<path d="M578.998 426.57L571.398 451H567.818L562.084 433.458C562.016 433.265 561.948 433.056 561.88 432.83C561.824 432.604 561.767 432.361 561.711 432.1C561.654 432.361 561.592 432.604 561.524 432.83C561.467 433.056 561.405 433.265 561.337 433.458L555.552 451H551.972L544.372 426.57H547.697C548.036 426.57 548.319 426.654 548.545 426.824C548.783 426.982 548.941 427.203 549.02 427.486L553.601 443.145C553.692 443.484 553.776 443.852 553.856 444.248C553.935 444.644 554.014 445.056 554.093 445.486C554.172 445.056 554.257 444.644 554.348 444.248C554.449 443.841 554.557 443.473 554.67 443.145L559.912 427.486C559.991 427.26 560.15 427.05 560.387 426.858C560.625 426.666 560.908 426.57 561.236 426.57H562.389C562.74 426.57 563.023 426.66 563.238 426.841C563.452 427.011 563.616 427.226 563.73 427.486L568.955 443.145C569.068 443.473 569.17 443.829 569.26 444.214C569.362 444.587 569.453 444.983 569.532 445.401C569.611 444.983 569.684 444.587 569.752 444.214C569.831 443.829 569.916 443.473 570.007 443.145L574.57 427.486C574.638 427.237 574.791 427.022 575.029 426.841C575.277 426.66 575.566 426.57 575.894 426.57H578.998ZM590.988 440.397C590.988 439.786 590.898 439.22 590.717 438.7C590.547 438.168 590.292 437.71 589.953 437.326C589.614 436.93 589.19 436.625 588.681 436.41C588.183 436.183 587.606 436.07 586.95 436.07C585.627 436.07 584.586 436.449 583.829 437.207C583.071 437.965 582.59 439.028 582.387 440.397H590.988ZM582.285 442.636C582.33 443.62 582.483 444.474 582.743 445.198C583.003 445.91 583.348 446.504 583.778 446.979C584.219 447.454 584.739 447.81 585.339 448.048C585.949 448.274 586.628 448.387 587.374 448.387C588.087 448.387 588.703 448.308 589.224 448.15C589.744 447.98 590.196 447.799 590.581 447.607C590.965 447.403 591.293 447.222 591.565 447.064C591.836 446.894 592.085 446.81 592.311 446.81C592.605 446.81 592.832 446.923 592.99 447.149L594.025 448.489C593.595 448.998 593.109 449.428 592.566 449.778C592.023 450.129 591.446 450.418 590.835 450.644C590.225 450.859 589.597 451.011 588.952 451.102C588.308 451.204 587.68 451.254 587.069 451.254C585.87 451.254 584.756 451.057 583.727 450.661C582.709 450.254 581.821 449.66 581.063 448.879C580.317 448.099 579.729 447.132 579.299 445.978C578.88 444.825 578.671 443.496 578.671 441.991C578.671 440.792 578.858 439.673 579.231 438.632C579.616 437.592 580.158 436.687 580.86 435.918C581.572 435.149 582.432 434.543 583.438 434.102C584.456 433.65 585.604 433.424 586.882 433.424C587.946 433.424 588.93 433.599 589.834 433.95C590.739 434.289 591.52 434.792 592.176 435.46C592.832 436.127 593.341 436.947 593.703 437.92C594.076 438.881 594.262 439.978 594.262 441.211C594.262 441.776 594.2 442.155 594.076 442.348C593.951 442.54 593.725 442.636 593.397 442.636H582.285ZM606.91 443.433C605.61 443.479 604.512 443.586 603.619 443.756C602.725 443.914 602.002 444.123 601.447 444.383C600.893 444.632 600.492 444.932 600.243 445.283C600.005 445.633 599.886 446.018 599.886 446.436C599.886 446.843 599.949 447.194 600.073 447.488C600.209 447.771 600.39 448.008 600.616 448.201C600.854 448.382 601.125 448.517 601.43 448.608C601.747 448.687 602.092 448.727 602.465 448.727C603.415 448.727 604.23 448.551 604.908 448.201C605.598 447.839 606.266 447.318 606.91 446.64V443.433ZM597.24 436.104C599.197 434.283 601.526 433.373 604.23 433.373C605.225 433.373 606.107 433.537 606.876 433.865C607.657 434.182 608.307 434.634 608.827 435.222C609.359 435.81 609.76 436.511 610.032 437.326C610.315 438.129 610.456 439.022 610.456 440.006V451H608.827C608.477 451 608.211 450.949 608.03 450.847C607.849 450.734 607.696 450.514 607.572 450.186L607.216 448.778C606.774 449.173 606.339 449.53 605.909 449.846C605.479 450.152 605.033 450.412 604.569 450.627C604.117 450.842 603.625 451 603.093 451.102C602.573 451.215 601.996 451.271 601.362 451.271C600.661 451.271 600.005 451.175 599.394 450.983C598.795 450.791 598.275 450.502 597.834 450.118C597.393 449.722 597.042 449.236 596.782 448.659C596.533 448.082 596.409 447.403 596.409 446.623C596.409 445.956 596.584 445.305 596.934 444.672C597.296 444.038 597.885 443.473 598.699 442.975C599.525 442.466 600.605 442.048 601.939 441.72C603.285 441.392 604.942 441.205 606.91 441.16V440.006C606.91 438.762 606.644 437.835 606.113 437.224C605.581 436.613 604.801 436.308 603.772 436.308C603.07 436.308 602.482 436.398 602.007 436.579C601.532 436.749 601.119 436.936 600.769 437.139C600.418 437.343 600.107 437.535 599.836 437.716C599.564 437.886 599.276 437.97 598.97 437.97C598.722 437.97 598.507 437.908 598.326 437.784C598.156 437.648 598.015 437.484 597.902 437.292L597.24 436.104ZM620.045 451.271C618.608 451.271 617.5 450.87 616.719 450.067C615.95 449.253 615.566 448.11 615.566 446.64V436.562H613.666C613.462 436.562 613.287 436.5 613.14 436.376C612.993 436.24 612.919 436.042 612.919 435.782V434.306L615.718 433.899L616.516 428.894C616.572 428.702 616.669 428.549 616.804 428.436C616.94 428.311 617.121 428.249 617.347 428.249H619.213V433.933H624.015V436.562H619.213V446.385C619.213 447.007 619.366 447.482 619.671 447.81C619.977 448.138 620.384 448.302 620.893 448.302C621.176 448.302 621.419 448.269 621.622 448.201C621.826 448.122 622.001 448.042 622.148 447.963C622.295 447.873 622.42 447.794 622.522 447.726C622.635 447.646 622.742 447.607 622.844 447.607C623.048 447.607 623.212 447.72 623.336 447.946L624.422 449.728C623.856 450.225 623.189 450.61 622.42 450.881C621.651 451.141 620.859 451.271 620.045 451.271ZM630.537 435.748C631.25 435.047 632.03 434.487 632.879 434.068C633.727 433.639 634.717 433.424 635.848 433.424C636.798 433.424 637.629 433.582 638.341 433.899C639.065 434.215 639.67 434.662 640.157 435.239C640.654 435.816 641.028 436.511 641.277 437.326C641.525 438.129 641.65 439.017 641.65 439.989V451H638.019V439.989C638.019 438.824 637.748 437.92 637.205 437.275C636.673 436.63 635.859 436.308 634.762 436.308C633.947 436.308 633.19 436.494 632.488 436.868C631.798 437.241 631.148 437.75 630.537 438.395V451H626.89V425.891H630.537V435.748ZM657.26 440.397C657.26 439.786 657.169 439.22 656.988 438.7C656.819 438.168 656.564 437.71 656.225 437.326C655.885 436.93 655.461 436.625 654.952 436.41C654.455 436.183 653.878 436.07 653.222 436.07C651.899 436.07 650.858 436.449 650.1 437.207C649.342 437.965 648.862 439.028 648.658 440.397H657.26ZM648.556 442.636C648.602 443.62 648.754 444.474 649.014 445.198C649.275 445.91 649.619 446.504 650.049 446.979C650.49 447.454 651.011 447.81 651.61 448.048C652.221 448.274 652.899 448.387 653.646 448.387C654.359 448.387 654.975 448.308 655.495 448.15C656.015 447.98 656.468 447.799 656.852 447.607C657.237 447.403 657.565 447.222 657.836 447.064C658.108 446.894 658.357 446.81 658.583 446.81C658.877 446.81 659.103 446.923 659.262 447.149L660.296 448.489C659.867 448.998 659.38 449.428 658.837 449.778C658.295 450.129 657.718 450.418 657.107 450.644C656.496 450.859 655.868 451.011 655.224 451.102C654.579 451.204 653.951 451.254 653.341 451.254C652.142 451.254 651.028 451.057 649.998 450.661C648.98 450.254 648.093 449.66 647.335 448.879C646.588 448.099 646 447.132 645.57 445.978C645.152 444.825 644.943 443.496 644.943 441.991C644.943 440.792 645.129 439.673 645.503 438.632C645.887 437.592 646.43 436.687 647.131 435.918C647.844 435.149 648.703 434.543 649.71 434.102C650.728 433.65 651.876 433.424 653.154 433.424C654.217 433.424 655.201 433.599 656.106 433.95C657.011 434.289 657.791 434.792 658.447 435.46C659.103 436.127 659.612 436.947 659.974 437.92C660.347 438.881 660.534 439.978 660.534 441.211C660.534 441.776 660.472 442.155 660.347 442.348C660.223 442.54 659.997 442.636 659.669 442.636H648.556ZM667.38 436.902C667.922 435.805 668.578 434.945 669.348 434.323C670.117 433.69 671.038 433.373 672.113 433.373C672.486 433.373 672.837 433.418 673.165 433.509C673.493 433.588 673.787 433.712 674.047 433.882L673.793 436.63C673.747 436.822 673.674 436.958 673.572 437.037C673.481 437.105 673.357 437.139 673.199 437.139C673.029 437.139 672.786 437.111 672.469 437.054C672.153 436.986 671.819 436.953 671.468 436.953C670.959 436.953 670.507 437.026 670.111 437.173C669.726 437.32 669.376 437.535 669.059 437.818C668.754 438.101 668.482 438.446 668.245 438.853C668.007 439.26 667.787 439.724 667.583 440.244V451H663.936V433.695H666.056C666.441 433.695 666.707 433.769 666.854 433.916C667.001 434.051 667.102 434.295 667.159 434.645L667.38 436.902ZM693.428 443.433C692.127 443.479 691.03 443.586 690.136 443.756C689.243 443.914 688.519 444.123 687.965 444.383C687.411 444.632 687.009 444.932 686.76 445.283C686.523 445.633 686.404 446.018 686.404 446.436C686.404 446.843 686.466 447.194 686.591 447.488C686.726 447.771 686.907 448.008 687.133 448.201C687.371 448.382 687.642 448.517 687.948 448.608C688.265 448.687 688.609 448.727 688.983 448.727C689.933 448.727 690.747 448.551 691.426 448.201C692.116 447.839 692.783 447.318 693.428 446.64V443.433ZM683.757 436.104C685.714 434.283 688.044 433.373 690.747 433.373C691.742 433.373 692.625 433.537 693.394 433.865C694.174 434.182 694.825 434.634 695.345 435.222C695.876 435.81 696.278 436.511 696.549 437.326C696.832 438.129 696.973 439.022 696.973 440.006V451H695.345C694.994 451 694.728 450.949 694.547 450.847C694.366 450.734 694.214 450.514 694.089 450.186L693.733 448.778C693.292 449.173 692.857 449.53 692.427 449.846C691.997 450.152 691.55 450.412 691.086 450.627C690.634 450.842 690.142 451 689.61 451.102C689.09 451.215 688.513 451.271 687.88 451.271C687.179 451.271 686.523 451.175 685.912 450.983C685.313 450.791 684.792 450.502 684.351 450.118C683.91 449.722 683.559 449.236 683.299 448.659C683.05 448.082 682.926 447.403 682.926 446.623C682.926 445.956 683.101 445.305 683.452 444.672C683.814 444.038 684.402 443.473 685.216 442.975C686.042 442.466 687.122 442.048 688.457 441.72C689.803 441.392 691.46 441.205 693.428 441.16V440.006C693.428 438.762 693.162 437.835 692.63 437.224C692.099 436.613 691.318 436.308 690.289 436.308C689.588 436.308 689 436.398 688.525 436.579C688.05 436.749 687.637 436.936 687.286 437.139C686.936 437.343 686.625 437.535 686.353 437.716C686.082 437.886 685.793 437.97 685.488 437.97C685.239 437.97 685.024 437.908 684.843 437.784C684.673 437.648 684.532 437.484 684.419 437.292L683.757 436.104ZM704.894 446.657C705.403 447.313 705.957 447.777 706.557 448.048C707.167 448.308 707.84 448.438 708.576 448.438C710.001 448.438 711.109 447.918 711.901 446.877C712.704 445.837 713.105 444.287 713.105 442.229C713.105 441.166 713.015 440.261 712.834 439.514C712.653 438.757 712.393 438.14 712.053 437.665C711.714 437.19 711.301 436.845 710.815 436.63C710.329 436.415 709.78 436.308 709.169 436.308C708.242 436.308 707.439 436.511 706.76 436.919C706.093 437.314 705.471 437.886 704.894 438.632V446.657ZM704.707 436.206C705.431 435.358 706.251 434.674 707.167 434.153C708.095 433.633 709.169 433.373 710.391 433.373C711.364 433.373 712.246 433.571 713.037 433.967C713.829 434.351 714.508 434.917 715.073 435.663C715.639 436.41 716.074 437.337 716.38 438.446C716.696 439.543 716.855 440.804 716.855 442.229C716.855 443.507 716.679 444.7 716.329 445.809C715.989 446.906 715.497 447.861 714.853 448.676C714.208 449.479 713.428 450.112 712.512 450.576C711.595 451.028 710.56 451.254 709.407 451.254C708.389 451.254 707.524 451.09 706.811 450.762C706.11 450.434 705.471 449.982 704.894 449.405V456.751H701.246V433.695H703.452C703.95 433.695 704.266 433.927 704.402 434.391L704.707 436.206ZM724.046 446.657C724.555 447.313 725.11 447.777 725.709 448.048C726.32 448.308 726.993 448.438 727.728 448.438C729.153 448.438 730.262 447.918 731.053 446.877C731.856 445.837 732.258 444.287 732.258 442.229C732.258 441.166 732.167 440.261 731.986 439.514C731.805 438.757 731.545 438.14 731.206 437.665C730.867 437.19 730.454 436.845 729.967 436.63C729.481 436.415 728.933 436.308 728.322 436.308C727.394 436.308 726.591 436.511 725.913 436.919C725.245 437.314 724.623 437.886 724.046 438.632V446.657ZM723.86 436.206C724.584 435.358 725.404 434.674 726.32 434.153C727.247 433.633 728.322 433.373 729.543 433.373C730.516 433.373 731.398 433.571 732.19 433.967C732.982 434.351 733.66 434.917 734.226 435.663C734.791 436.41 735.227 437.337 735.532 438.446C735.849 439.543 736.007 440.804 736.007 442.229C736.007 443.507 735.832 444.7 735.481 445.809C735.142 446.906 734.65 447.861 734.005 448.676C733.361 449.479 732.58 450.112 731.664 450.576C730.748 451.028 729.713 451.254 728.559 451.254C727.541 451.254 726.676 451.09 725.964 450.762C725.262 450.434 724.623 449.982 724.046 449.405V456.751H720.399V433.695H722.604C723.102 433.695 723.419 433.927 723.554 434.391L723.86 436.206Z" fill="white"/>
<path d="M478.278 491.125C478.497 491.125 478.707 491.212 478.861 491.367C479.016 491.522 479.103 491.732 479.103 491.95C479.103 492.169 479.016 492.379 478.861 492.534C478.707 492.689 478.497 492.776 478.278 492.776C478.059 492.776 477.849 492.689 477.694 492.534C477.54 492.379 477.453 492.169 477.453 491.95C477.453 491.732 477.54 491.522 477.694 491.367C477.849 491.212 478.059 491.125 478.278 491.125ZM485.29 485.35C485.837 485.35 486.361 485.567 486.748 485.954C487.135 486.341 487.352 486.865 487.352 487.412C487.352 487.959 487.135 488.484 486.748 488.871C486.361 489.258 485.837 489.475 485.29 489.475L485.247 489.474L485.153 489.481L484.541 489.48C484.633 489.704 484.684 489.949 484.684 490.206C484.687 490.465 484.639 490.721 484.541 490.96C484.444 491.199 484.3 491.417 484.117 491.6C483.935 491.782 483.717 491.927 483.478 492.025C483.239 492.122 482.983 492.171 482.724 492.168C481.897 492.168 481.289 491.802 480.967 491.198C480.893 491.059 480.875 490.898 480.916 490.747C480.957 490.595 481.054 490.465 481.187 490.382C481.32 490.3 481.48 490.27 481.634 490.301C481.787 490.331 481.924 490.419 482.016 490.546L482.098 490.681C482.21 490.841 482.395 490.931 482.725 490.931C482.821 490.933 482.916 490.917 483.005 490.881C483.094 490.846 483.175 490.792 483.243 490.724C483.31 490.657 483.363 490.576 483.398 490.486C483.433 490.397 483.45 490.302 483.446 490.206C483.446 489.843 483.148 489.534 482.75 489.492L482.573 489.481H474.771C474.614 489.481 474.463 489.421 474.349 489.314C474.234 489.207 474.165 489.061 474.154 488.904C474.143 488.748 474.192 488.593 474.291 488.472C474.39 488.35 474.532 488.27 474.687 488.249L474.771 488.243H485.153L485.192 488.245L485.241 488.239L485.386 488.232C485.528 488.215 485.662 488.161 485.777 488.077C485.892 487.993 485.983 487.88 486.041 487.75C486.099 487.62 486.123 487.477 486.11 487.336C486.096 487.194 486.046 487.058 485.965 486.941C485.884 486.824 485.773 486.73 485.645 486.669C485.517 486.607 485.375 486.58 485.232 486.589C485.09 486.599 484.953 486.645 484.834 486.723C484.715 486.802 484.619 486.909 484.554 487.036L484.479 487.207C484.406 487.346 484.283 487.452 484.135 487.503C483.987 487.555 483.824 487.548 483.681 487.484C483.537 487.421 483.424 487.305 483.362 487.16C483.301 487.016 483.297 486.853 483.351 486.706C483.496 486.308 483.76 485.965 484.107 485.722C484.453 485.48 484.866 485.35 485.29 485.35ZM480.339 481.22C481.075 481.218 481.784 481.497 482.321 482.001C482.859 482.504 483.183 483.193 483.229 483.928C483.275 484.663 483.038 485.387 482.568 485.953C482.097 486.52 481.429 486.885 480.698 486.974L480.615 486.991L480.53 486.996H474.771C474.614 486.996 474.463 486.936 474.349 486.829C474.234 486.722 474.165 486.575 474.154 486.419C474.143 486.263 474.192 486.108 474.291 485.986C474.39 485.865 474.532 485.785 474.687 485.764L474.771 485.758H480.34C480.666 485.758 480.985 485.661 481.257 485.48C481.528 485.299 481.74 485.041 481.864 484.739C481.989 484.438 482.022 484.106 481.958 483.786C481.895 483.466 481.738 483.172 481.507 482.941C481.276 482.71 480.982 482.553 480.662 482.489C480.342 482.426 480.01 482.458 479.708 482.583C479.407 482.708 479.149 482.92 478.968 483.191C478.786 483.462 478.69 483.781 478.69 484.108C478.69 484.272 478.624 484.429 478.508 484.545C478.392 484.661 478.235 484.727 478.071 484.727C477.907 484.727 477.749 484.661 477.633 484.545C477.517 484.429 477.452 484.272 477.452 484.108C477.452 483.342 477.756 482.607 478.298 482.066C478.839 481.524 479.573 481.22 480.339 481.22ZM474.977 481.224C475.196 481.224 475.406 481.311 475.561 481.466C475.716 481.62 475.803 481.83 475.803 482.049C475.803 482.268 475.716 482.478 475.561 482.633C475.406 482.787 475.196 482.874 474.977 482.874C474.759 482.874 474.549 482.787 474.394 482.633C474.239 482.478 474.152 482.268 474.152 482.049C474.152 481.83 474.239 481.62 474.394 481.466C474.549 481.311 474.759 481.224 474.977 481.224ZM486.529 480.399C486.748 480.399 486.958 480.486 487.112 480.641C487.267 480.795 487.354 481.005 487.354 481.224C487.354 481.443 487.267 481.653 487.112 481.807C486.958 481.962 486.748 482.049 486.529 482.049C486.31 482.049 486.1 481.962 485.946 481.807C485.791 481.653 485.704 481.443 485.704 481.224C485.704 481.005 485.791 480.795 485.946 480.641C486.1 480.486 486.31 480.399 486.529 480.399Z" fill="#373839"/>
<path d="M563.923 490.094C563.809 490.095 563.697 490.071 563.593 490.025C563.005 489.768 562.505 489.344 562.153 488.807C561.802 488.27 561.615 487.642 561.614 487C561.615 486.268 561.859 485.558 562.307 484.979C562.755 484.401 563.382 483.987 564.09 483.804L564.09 483.7C564.09 480.969 566.31 478.749 569.04 478.749C570.21 478.748 571.341 479.162 572.233 479.918C573.125 480.673 573.72 481.722 573.91 482.875C573.946 483.091 573.895 483.313 573.769 483.491C573.642 483.669 573.449 483.79 573.233 483.826C573.018 483.861 572.797 483.809 572.619 483.683C572.442 483.556 572.321 483.364 572.283 483.149C572.156 482.381 571.761 481.682 571.167 481.179C570.573 480.675 569.819 480.399 569.04 480.399C568.55 480.4 568.066 480.509 567.623 480.72C567.181 480.93 566.79 481.237 566.481 481.617C566.171 481.997 565.95 482.441 565.833 482.917C565.717 483.393 565.708 483.89 565.807 484.37L566.02 485.418L564.84 485.345C564.005 485.35 563.264 486.09 563.264 487C563.264 487.656 563.653 488.25 564.255 488.513C564.428 488.589 564.57 488.723 564.657 488.891C564.744 489.06 564.77 489.253 564.731 489.439C564.692 489.624 564.591 489.791 564.443 489.91C564.296 490.029 564.112 490.094 563.923 490.094ZM575.641 482.875C575.422 482.875 575.212 482.962 575.058 483.116C574.903 483.271 574.816 483.481 574.816 483.7C574.816 483.919 574.903 484.128 575.058 484.283C575.212 484.438 575.422 484.525 575.641 484.525C575.86 484.525 576.07 484.612 576.225 484.766C576.379 484.921 576.466 485.131 576.466 485.35C576.466 485.569 576.379 485.779 576.225 485.933C576.07 486.088 575.86 486.175 575.641 486.175H567.72C567.501 486.175 567.291 486.262 567.137 486.417C566.982 486.571 566.895 486.781 566.895 487C566.895 487.219 566.982 487.429 567.137 487.584C567.291 487.738 567.501 487.825 567.72 487.825H571.516C571.734 487.825 571.944 487.912 572.099 488.067C572.254 488.222 572.341 488.432 572.341 488.65C572.341 488.869 572.254 489.079 572.099 489.234C571.944 489.389 571.734 489.475 571.516 489.475H567.39C566.025 489.475 564.915 490.586 564.915 491.951C564.915 493.316 566.025 494.426 567.39 494.426C567.609 494.426 567.819 494.339 567.973 494.184C568.128 494.03 568.215 493.82 568.215 493.601C568.215 493.382 568.128 493.172 567.973 493.018C567.819 492.863 567.609 492.776 567.39 492.776C567.171 492.776 566.961 492.689 566.807 492.534C566.652 492.38 566.565 492.17 566.565 491.951C566.565 491.732 566.652 491.522 566.807 491.367C566.961 491.213 567.171 491.126 567.39 491.126H571.516C572.88 491.126 573.991 490.015 573.991 488.65C573.991 488.359 573.932 488.084 573.838 487.825H575.641C577.006 487.825 578.117 486.715 578.117 485.35C578.117 483.985 577.006 482.875 575.641 482.875Z" fill="#373839"/>
<g clip-path="url(#clip0_706_1539)">
<path d="M664.753 491.951C664.534 491.951 664.324 491.864 664.17 491.709C664.015 491.554 663.928 491.344 663.928 491.125C663.928 490.907 664.015 490.697 664.17 490.542C664.324 490.387 664.534 490.3 664.753 490.3C666.118 490.3 667.228 489.19 667.228 487.825C667.228 486.46 666.118 485.35 664.753 485.35C664.557 485.35 664.344 485.384 664.082 485.458L663.199 485.706L663.045 484.8C662.919 484.031 662.523 483.333 661.929 482.829C661.335 482.325 660.581 482.049 659.802 482.049C659.313 482.05 658.83 482.159 658.387 482.37C657.945 482.58 657.556 482.886 657.246 483.266C656.937 483.645 656.716 484.089 656.599 484.564C656.482 485.039 656.472 485.535 656.57 486.015L656.784 487.038L655.599 486.995C654.766 487 654.027 487.74 654.027 488.65C654.027 489.56 654.766 490.3 655.677 490.3C655.896 490.3 656.106 490.387 656.26 490.542C656.415 490.697 656.502 490.907 656.502 491.125C656.502 491.344 656.415 491.554 656.26 491.709C656.106 491.864 655.896 491.951 655.677 491.951C653.858 491.951 652.376 490.47 652.376 488.65C652.377 487.918 652.621 487.207 653.069 486.629C653.518 486.051 654.145 485.637 654.853 485.454L654.852 485.35C654.852 482.619 657.072 480.399 659.802 480.399C660.828 480.397 661.828 480.715 662.663 481.309C663.499 481.903 664.128 482.743 664.464 483.712C666.877 483.513 668.879 485.454 668.879 487.825C668.879 490.1 667.028 491.951 664.753 491.951ZM661.155 488.65L657.442 491.993L659.917 493.188L658.679 496.076L662.393 492.734L659.917 491.538L661.155 488.65Z" fill="#373839"/>
</g>
<path d="M525.309 480.399L524.484 482.82L523.659 480.399C523.614 480.268 523.601 480.128 523.622 479.991C523.642 479.854 523.695 479.724 523.775 479.611C523.856 479.499 523.962 479.407 524.086 479.344C524.209 479.281 524.345 479.248 524.484 479.248C524.622 479.248 524.759 479.281 524.882 479.344C525.005 479.407 525.111 479.499 525.192 479.611C525.273 479.724 525.325 479.854 525.346 479.991C525.366 480.128 525.353 480.268 525.309 480.399ZM517.883 486.175L520.304 487L517.883 487.825C517.752 487.869 517.612 487.882 517.475 487.862C517.338 487.841 517.208 487.789 517.095 487.708C516.983 487.627 516.891 487.521 516.828 487.398C516.764 487.275 516.731 487.138 516.731 487C516.731 486.861 516.764 486.725 516.828 486.602C516.891 486.479 516.983 486.372 517.095 486.292C517.208 486.211 517.338 486.158 517.475 486.138C517.612 486.118 517.752 486.13 517.883 486.175ZM523.659 493.601L524.484 491.18L525.309 493.601C525.353 493.732 525.366 493.872 525.346 494.009C525.325 494.146 525.273 494.276 525.192 494.388C525.111 494.501 525.005 494.592 524.882 494.656C524.759 494.719 524.622 494.752 524.484 494.752C524.345 494.752 524.209 494.719 524.086 494.656C523.962 494.592 523.856 494.501 523.775 494.388C523.695 494.276 523.642 494.146 523.622 494.009C523.601 493.872 523.614 493.732 523.659 493.601ZM531.085 487.823L528.664 486.998L531.085 486.173C531.216 486.128 531.355 486.116 531.492 486.136C531.629 486.157 531.76 486.209 531.872 486.29C531.985 486.371 532.076 486.477 532.14 486.6C532.203 486.723 532.236 486.86 532.236 486.998C532.236 487.137 532.203 487.273 532.14 487.396C532.076 487.519 531.985 487.626 531.872 487.706C531.76 487.787 531.629 487.84 531.492 487.86C531.355 487.88 531.216 487.868 531.085 487.823ZM520.399 481.749L521.527 484.043L519.233 482.915C519.108 482.854 519 482.765 518.917 482.653C518.834 482.542 518.778 482.412 518.756 482.275C518.733 482.139 518.743 481.998 518.785 481.866C518.828 481.734 518.901 481.614 518.999 481.515C519.097 481.417 519.218 481.344 519.35 481.302C519.482 481.259 519.622 481.249 519.759 481.272C519.896 481.295 520.026 481.35 520.137 481.433C520.248 481.516 520.338 481.624 520.399 481.749ZM519.233 491.083L521.527 489.955L520.399 492.25C520.338 492.375 520.248 492.483 520.137 492.566C520.026 492.649 519.896 492.704 519.759 492.727C519.622 492.75 519.482 492.74 519.35 492.697C519.218 492.655 519.097 492.581 518.999 492.483C518.901 492.385 518.828 492.265 518.785 492.133C518.743 492.001 518.733 491.86 518.756 491.723C518.778 491.586 518.834 491.457 518.917 491.345C519 491.234 519.108 491.144 519.233 491.083ZM528.567 492.25L527.439 489.955L529.734 491.083C529.859 491.144 529.967 491.234 530.05 491.345C530.133 491.457 530.188 491.586 530.211 491.723C530.234 491.86 530.223 492.001 530.181 492.133C530.139 492.265 530.065 492.385 529.967 492.483C529.869 492.581 529.749 492.655 529.617 492.697C529.484 492.74 529.344 492.75 529.207 492.727C529.07 492.704 528.941 492.649 528.829 492.566C528.718 492.483 528.628 492.375 528.567 492.25ZM529.733 482.914L527.438 484.043L528.566 481.747C528.627 481.622 528.717 481.514 528.829 481.431C528.94 481.348 529.069 481.293 529.206 481.27C529.343 481.247 529.484 481.257 529.616 481.3C529.748 481.342 529.868 481.416 529.966 481.514C530.065 481.612 530.138 481.732 530.18 481.864C530.223 481.996 530.233 482.137 530.21 482.274C530.187 482.411 530.132 482.54 530.049 482.652C529.966 482.763 529.858 482.853 529.733 482.914ZM524.484 490.713C522.437 490.713 520.771 489.047 520.771 487C520.771 484.953 522.437 483.287 524.484 483.287C526.531 483.287 528.197 484.953 528.197 487C528.197 489.047 526.531 490.713 524.484 490.713ZM524.484 484.937C523.346 484.937 522.421 485.862 522.421 487C522.421 488.138 523.346 489.063 524.484 489.063C525.621 489.063 526.546 488.138 526.546 487C526.546 485.862 525.621 484.937 524.484 484.937Z" fill="#373839"/>
<g clip-path="url(#clip1_706_1539)">
<path d="M708.484 495.251C708.265 495.251 708.056 495.164 707.901 495.009C707.746 494.855 707.659 494.645 707.659 494.426V489.475C707.659 489.256 707.746 489.046 707.901 488.892C708.056 488.737 708.265 488.65 708.484 488.65C708.703 488.65 708.913 488.737 709.068 488.892C709.222 489.046 709.309 489.256 709.309 489.475V494.426C709.309 494.645 709.222 494.855 709.068 495.009C708.913 495.164 708.703 495.251 708.484 495.251ZM703.534 495.251C703.315 495.251 703.105 495.164 702.95 495.009C702.795 494.855 702.708 494.645 702.708 494.426V489.475C702.708 489.256 702.795 489.046 702.95 488.892C703.105 488.737 703.315 488.65 703.534 488.65C703.752 488.65 703.962 488.737 704.117 488.892C704.272 489.046 704.359 489.256 704.359 489.475V494.426C704.359 494.645 704.272 494.855 704.117 495.009C703.962 495.164 703.752 495.251 703.534 495.251ZM706.009 496.901C705.79 496.901 705.58 496.814 705.425 496.66C705.271 496.505 705.184 496.295 705.184 496.076V491.125C705.184 490.907 705.271 490.697 705.425 490.542C705.58 490.387 705.79 490.3 706.009 490.3C706.228 490.3 706.438 490.387 706.592 490.542C706.747 490.697 706.834 490.907 706.834 491.125V496.076C706.834 496.295 706.747 496.505 706.592 496.66C706.438 496.814 706.228 496.901 706.009 496.901ZM701.058 491.951C699.238 491.951 697.758 490.47 697.758 488.65C697.759 487.918 698.002 487.208 698.45 486.629C698.898 486.051 699.526 485.637 700.234 485.454L700.233 485.35C700.233 482.619 702.454 480.399 705.184 480.399C706.209 480.397 707.209 480.716 708.045 481.31C708.88 481.903 709.51 482.743 709.846 483.712C712.268 483.51 714.26 485.455 714.26 487.825C714.259 488.727 713.962 489.604 713.416 490.322C712.87 491.039 712.104 491.559 711.235 491.801C711.13 491.834 711.019 491.845 710.909 491.834C710.799 491.823 710.692 491.79 710.595 491.737C710.499 491.683 710.413 491.612 710.345 491.525C710.276 491.438 710.226 491.339 710.196 491.232C710.167 491.126 710.159 491.015 710.174 490.905C710.188 490.796 710.224 490.69 710.28 490.595C710.336 490.5 710.411 490.417 710.499 490.351C710.588 490.285 710.689 490.237 710.796 490.211C711.317 490.065 711.777 489.753 712.104 489.323C712.431 488.892 712.609 488.366 712.61 487.825C712.61 486.46 711.499 485.35 710.134 485.35C709.935 485.35 709.723 485.383 709.465 485.457L708.579 485.709L708.427 484.8C708.3 484.031 707.905 483.333 707.311 482.829C706.717 482.325 705.963 482.049 705.184 482.049C704.694 482.05 704.21 482.159 703.768 482.37C703.326 482.58 702.936 482.886 702.626 483.266C702.317 483.646 702.096 484.089 701.979 484.565C701.862 485.041 701.853 485.536 701.951 486.016L702.156 487.008L700.982 486.995C700.148 487 699.408 487.74 699.408 488.65C699.408 489.56 700.148 490.3 701.058 490.3C701.277 490.3 701.487 490.387 701.642 490.542C701.796 490.697 701.883 490.907 701.883 491.125C701.883 491.344 701.796 491.554 701.642 491.709C701.487 491.864 701.277 491.951 701.058 491.951Z" fill="#373839"/>
</g>
<path d="M753.453 479.574L752.628 482.049L751.803 479.574C751.76 479.444 751.748 479.305 751.769 479.169C751.79 479.033 751.843 478.904 751.924 478.793C752.004 478.681 752.11 478.591 752.233 478.528C752.355 478.466 752.49 478.433 752.628 478.433C752.765 478.433 752.901 478.466 753.023 478.528C753.146 478.591 753.251 478.681 753.332 478.793C753.412 478.904 753.465 479.033 753.486 479.169C753.508 479.305 753.496 479.444 753.453 479.574ZM757.879 482.091L755.545 483.258L756.712 480.924C756.82 480.726 757.001 480.578 757.216 480.511C757.431 480.443 757.664 480.462 757.865 480.563C758.067 480.663 758.222 480.839 758.297 481.051C758.372 481.264 758.362 481.497 758.268 481.702C758.184 481.87 758.047 482.007 757.879 482.091ZM759.229 487L756.753 486.175L759.229 485.35C759.359 485.306 759.499 485.295 759.635 485.315C759.771 485.336 759.9 485.389 760.012 485.47C760.124 485.55 760.215 485.656 760.278 485.779C760.34 485.901 760.373 486.037 760.373 486.175C760.373 486.313 760.34 486.449 760.278 486.571C760.215 486.694 760.124 486.8 760.012 486.88C759.9 486.961 759.771 487.014 759.635 487.035C759.499 487.056 759.359 487.044 759.229 487ZM748.544 480.924L749.711 483.258L747.377 482.091C747.253 482.029 747.146 481.939 747.064 481.828C746.982 481.717 746.927 481.588 746.905 481.452C746.882 481.315 746.893 481.176 746.935 481.044C746.978 480.913 747.051 480.793 747.148 480.695C747.246 480.598 747.365 480.525 747.497 480.482C747.629 480.44 747.768 480.43 747.905 480.452C748.041 480.474 748.17 480.529 748.281 480.611C748.392 480.693 748.482 480.8 748.544 480.924ZM756.156 487.282C756.271 486.932 756.341 486.564 756.341 486.175C756.341 484.128 754.675 482.462 752.628 482.462C751.522 482.462 750.535 482.952 749.858 483.723L749.74 483.7C749.043 483.7 748.354 483.848 747.718 484.134C747.083 484.42 746.515 484.838 746.053 485.359C745.899 485.302 745.732 485.29 745.572 485.324C745.412 485.358 745.264 485.436 745.146 485.55C745.029 485.664 744.945 485.809 744.907 485.968C744.868 486.127 744.874 486.294 744.926 486.45C744.973 486.588 745.057 486.696 745.155 486.789C744.914 487.38 744.79 488.012 744.789 488.65L744.791 488.754C744.083 488.938 743.455 489.351 743.007 489.93C742.559 490.508 742.315 491.219 742.314 491.951C742.314 493.771 743.795 495.251 745.614 495.251H754.691C756.965 495.251 758.816 493.401 758.816 491.126C758.816 489.369 757.707 487.876 756.156 487.282ZM752.628 484.112C753.766 484.112 754.691 485.037 754.691 486.175C754.691 486.477 754.611 486.758 754.494 487.016C754.202 487.033 753.9 487.077 753.572 487.171C753.36 486.619 753.031 486.119 752.609 485.706C752.186 485.292 751.68 484.974 751.124 484.774C751.315 484.566 751.548 484.4 751.807 484.286C752.065 484.172 752.345 484.113 752.628 484.112ZM754.691 493.601H745.614C744.703 493.601 743.964 492.861 743.964 491.951C743.964 491.041 744.703 490.301 745.539 490.296L746.712 490.309L746.507 489.317C746.409 488.837 746.419 488.342 746.536 487.866C746.652 487.39 746.874 486.947 747.183 486.567C747.492 486.187 747.882 485.881 748.324 485.671C748.767 485.46 749.25 485.351 749.74 485.35L749.797 485.338C750.555 485.357 751.284 485.634 751.862 486.125C752.439 486.617 752.831 487.291 752.971 488.036L753.002 488.19C753.051 488.359 753.154 488.508 753.295 488.614C753.435 488.72 753.607 488.777 753.783 488.777L754.021 488.758C754.279 488.684 754.491 488.65 754.691 488.65C756.055 488.65 757.166 489.761 757.166 491.126C757.166 492.49 756.055 493.601 754.691 493.601Z" fill="#373839"/>
<path d="M619.372 491.951C619.153 491.951 618.944 491.864 618.789 491.709C618.634 491.554 618.547 491.344 618.547 491.125C618.547 490.907 618.634 490.697 618.789 490.542C618.944 490.387 619.153 490.3 619.372 490.3C620.737 490.3 621.848 489.19 621.848 487.825C621.848 486.46 620.737 485.35 619.372 485.35C619.172 485.35 618.96 485.383 618.704 485.457L617.817 485.71L617.664 484.8C617.538 484.031 617.142 483.333 616.548 482.829C615.954 482.325 615.201 482.049 614.422 482.049C613.932 482.05 613.448 482.159 613.005 482.37C612.563 482.58 612.173 482.887 611.863 483.267C611.554 483.647 611.333 484.091 611.216 484.567C611.099 485.043 611.09 485.539 611.189 486.019L611.39 487.008L610.218 486.995C609.386 487 608.646 487.74 608.646 488.65C608.646 489.56 609.386 490.3 610.296 490.3C610.515 490.3 610.725 490.387 610.879 490.542C611.034 490.697 611.121 490.907 611.121 491.125C611.121 491.344 611.034 491.554 610.879 491.709C610.725 491.864 610.515 491.951 610.296 491.951C608.476 491.951 606.996 490.47 606.996 488.65C606.996 487.918 607.24 487.208 607.688 486.629C608.136 486.051 608.764 485.637 609.472 485.454L609.471 485.35C609.471 482.619 611.691 480.399 614.422 480.399C615.447 480.397 616.447 480.716 617.283 481.309C618.118 481.903 618.748 482.743 619.083 483.712C621.509 483.51 623.498 485.455 623.498 487.825C623.498 490.1 621.647 491.951 619.372 491.951ZM614.009 491.951L614.834 489.475L615.659 491.951C615.702 492.081 615.714 492.22 615.693 492.356C615.672 492.492 615.619 492.62 615.538 492.732C615.458 492.843 615.352 492.934 615.229 492.996C615.107 493.059 614.972 493.092 614.834 493.092C614.697 493.092 614.561 493.059 614.439 492.996C614.316 492.934 614.211 492.843 614.13 492.732C614.05 492.62 613.997 492.492 613.976 492.356C613.955 492.22 613.966 492.081 614.009 491.951ZM616.484 493.601L617.31 491.125L618.135 493.601C618.178 493.731 618.189 493.87 618.168 494.006C618.147 494.142 618.094 494.271 618.014 494.382C617.933 494.493 617.827 494.584 617.705 494.647C617.582 494.709 617.447 494.742 617.31 494.742C617.172 494.742 617.037 494.709 616.914 494.647C616.792 494.584 616.686 494.493 616.605 494.382C616.525 494.271 616.472 494.142 616.451 494.006C616.43 493.87 616.441 493.731 616.484 493.601ZM611.534 493.601L612.359 491.125L613.184 493.601C613.227 493.731 613.238 493.87 613.217 494.006C613.196 494.142 613.143 494.271 613.063 494.382C612.982 494.493 612.877 494.584 612.754 494.647C612.632 494.709 612.496 494.742 612.359 494.742C612.221 494.742 612.086 494.709 611.964 494.647C611.841 494.584 611.735 494.493 611.655 494.382C611.574 494.271 611.521 494.142 611.5 494.006C611.479 493.87 611.491 493.731 611.534 493.601Z" fill="#373839"/>
<path d="M803.784 489.586L801.757 489.171L802.981 488.844C803.085 488.816 803.183 488.768 803.269 488.702C803.355 488.636 803.427 488.554 803.482 488.46C803.536 488.366 803.571 488.262 803.585 488.155C803.599 488.047 803.592 487.938 803.564 487.834C803.536 487.729 803.487 487.631 803.421 487.545C803.355 487.459 803.273 487.387 803.179 487.333C803.085 487.278 802.982 487.243 802.874 487.229C802.767 487.215 802.658 487.222 802.553 487.25L801.309 487.583C801.339 487.392 801.367 487.2 801.367 487C801.367 486.801 801.339 486.607 801.309 486.417L802.555 486.75L802.769 486.778C802.969 486.778 803.163 486.705 803.313 486.573C803.464 486.441 803.561 486.259 803.587 486.061C803.613 485.862 803.566 485.661 803.455 485.494C803.344 485.328 803.176 485.208 802.982 485.156L801.759 484.829L803.784 484.414C803.919 484.387 804.046 484.327 804.153 484.241C804.261 484.155 804.346 484.045 804.403 483.919C804.459 483.793 804.485 483.656 804.478 483.518C804.471 483.381 804.432 483.247 804.363 483.127C804.294 483.008 804.198 482.907 804.082 482.832C803.966 482.757 803.834 482.711 803.697 482.697C803.56 482.683 803.422 482.702 803.294 482.752C803.165 482.802 803.051 482.882 802.959 482.985L801.587 484.531L801.915 483.311C801.944 483.206 801.951 483.097 801.937 482.99C801.923 482.882 801.888 482.779 801.834 482.685C801.724 482.495 801.544 482.356 801.333 482.3C801.121 482.243 800.896 482.272 800.706 482.381C800.517 482.491 800.378 482.671 800.321 482.882L799.985 484.134C799.684 483.884 799.344 483.685 798.98 483.542L799.889 482.633C799.965 482.556 800.026 482.465 800.068 482.365C800.109 482.265 800.13 482.158 800.13 482.05C800.13 481.941 800.109 481.834 800.068 481.734C800.026 481.634 799.965 481.543 799.889 481.466C799.812 481.39 799.721 481.329 799.621 481.287C799.521 481.246 799.414 481.225 799.306 481.225C799.197 481.225 799.09 481.246 798.99 481.287C798.89 481.329 798.799 481.39 798.722 481.466L797.826 482.362L798.48 480.399C798.523 480.269 798.535 480.13 798.514 479.994C798.493 479.858 798.44 479.729 798.359 479.618C798.279 479.507 798.173 479.416 798.051 479.353C797.928 479.291 797.793 479.258 797.655 479.258C797.518 479.258 797.382 479.291 797.26 479.353C797.138 479.416 797.032 479.507 796.951 479.618C796.871 479.729 796.818 479.858 796.797 479.994C796.776 480.13 796.787 480.269 796.83 480.399L797.484 482.362L796.588 481.466C796.434 481.311 796.224 481.225 796.005 481.225C795.786 481.225 795.576 481.311 795.422 481.466C795.267 481.621 795.18 481.831 795.18 482.05C795.18 482.268 795.267 482.478 795.422 482.633L796.331 483.542C795.967 483.685 795.627 483.885 795.325 484.134L794.991 482.884C794.965 482.777 794.917 482.678 794.852 482.59C794.786 482.502 794.704 482.428 794.609 482.373C794.515 482.317 794.411 482.281 794.302 482.266C794.194 482.251 794.083 482.258 793.977 482.286C793.872 482.314 793.773 482.363 793.686 482.43C793.599 482.497 793.527 482.581 793.473 482.676C793.419 482.771 793.384 482.876 793.371 482.985C793.358 483.094 793.367 483.204 793.397 483.309L793.724 484.535L792.352 482.986C792.245 482.866 792.106 482.778 791.952 482.732C791.797 482.686 791.633 482.683 791.477 482.725C791.321 482.767 791.18 482.851 791.069 482.968C790.958 483.085 790.882 483.23 790.849 483.388C790.752 483.858 791.056 484.319 791.527 484.415L793.552 484.83L792.331 485.157C792.137 485.209 791.97 485.329 791.858 485.495C791.747 485.662 791.7 485.863 791.726 486.061C791.752 486.26 791.849 486.442 792 486.574C792.15 486.706 792.344 486.779 792.544 486.779L792.758 486.751L794.003 486.418C793.966 486.61 793.946 486.805 793.942 487C793.942 487.2 793.97 487.392 794.001 487.584L792.757 487.25C792.652 487.222 792.543 487.215 792.435 487.229C792.328 487.243 792.224 487.278 792.13 487.333C792.037 487.387 791.954 487.459 791.888 487.545C791.822 487.631 791.774 487.729 791.746 487.834C791.718 487.938 791.711 488.047 791.725 488.155C791.739 488.262 791.774 488.366 791.828 488.46C791.882 488.554 791.954 488.636 792.04 488.702C792.126 488.768 792.225 488.816 792.329 488.844L793.553 489.172L791.527 489.586C791.369 489.618 791.222 489.693 791.104 489.804C790.986 489.915 790.902 490.056 790.86 490.212C790.818 490.369 790.82 490.533 790.867 490.688C790.914 490.843 791.003 490.982 791.125 491.089C791.21 491.165 791.309 491.223 791.417 491.26C791.525 491.298 791.64 491.313 791.754 491.307C791.868 491.3 791.979 491.271 792.082 491.221C792.185 491.171 792.277 491.101 792.352 491.015L793.726 489.466L793.398 490.69C793.37 490.795 793.362 490.904 793.377 491.011C793.391 491.119 793.426 491.222 793.48 491.316C793.534 491.41 793.606 491.492 793.692 491.558C793.778 491.624 793.876 491.673 793.981 491.701L794.196 491.729C794.377 491.729 794.553 491.669 794.697 491.558C794.841 491.448 794.945 491.293 794.992 491.118L795.327 489.867C795.629 490.113 795.963 490.316 796.333 490.458L795.423 491.368C795.346 491.444 795.285 491.535 795.244 491.635C795.202 491.735 795.181 491.843 795.181 491.951C795.181 492.059 795.202 492.167 795.244 492.267C795.285 492.367 795.346 492.458 795.423 492.534C795.577 492.689 795.787 492.776 796.006 492.776C796.114 492.776 796.221 492.755 796.322 492.713C796.422 492.672 796.513 492.611 796.589 492.534L797.172 491.951H797.38L796.83 493.6C796.787 493.731 796.776 493.87 796.797 494.006C796.818 494.141 796.871 494.27 796.951 494.382C797.032 494.493 797.138 494.584 797.26 494.646C797.382 494.709 797.518 494.741 797.655 494.741C797.793 494.741 797.928 494.709 798.051 494.646C798.173 494.584 798.279 494.493 798.359 494.382C798.44 494.27 798.493 494.141 798.514 494.006C798.535 493.87 798.523 493.731 798.48 493.6L797.931 491.951H798.139L798.722 492.534C798.877 492.689 799.087 492.776 799.306 492.776C799.524 492.776 799.734 492.689 799.889 492.534C800.044 492.38 800.13 492.17 800.13 491.951C800.13 491.732 800.044 491.522 799.889 491.368L798.98 490.457C799.345 490.315 799.684 490.115 799.986 489.866L800.321 491.118C800.368 491.293 800.472 491.448 800.616 491.558C800.76 491.669 800.936 491.729 801.117 491.729L801.332 491.701C801.437 491.673 801.535 491.624 801.621 491.558C801.707 491.492 801.779 491.41 801.833 491.316C801.887 491.222 801.922 491.119 801.936 491.011C801.951 490.904 801.943 490.795 801.915 490.69L801.588 489.469L802.959 491.015C803.051 491.118 803.165 491.198 803.294 491.248C803.422 491.298 803.56 491.317 803.697 491.303C803.834 491.289 803.966 491.243 804.082 491.168C804.198 491.094 804.294 490.992 804.363 490.873C804.432 490.754 804.471 490.62 804.478 490.482C804.485 490.344 804.459 490.207 804.403 490.081C804.346 489.956 804.261 489.845 804.153 489.759C804.046 489.673 803.919 489.614 803.784 489.586ZM797.655 489.063C796.517 489.063 795.592 488.138 795.592 487C795.592 485.862 796.517 484.937 797.655 484.937C798.793 484.937 799.718 485.862 799.718 487C799.718 488.138 798.793 489.063 797.655 489.063Z" fill="#373839"/>
<defs>
<clipPath id="clip0_706_1539">
<rect width="19.8027" height="19.8027" fill="white" transform="translate(650.726 477.099)"/>
</clipPath>
<clipPath id="clip1_706_1539">
<rect width="19.8027" height="19.8027" fill="white" transform="translate(696.107 477.099)"/>
</clipPath>
</defs>
</svg>
